{
  "asset": {
    "version": "2.0",
    "generator": "Quantum Billiards deterministic KHR_interactivity pipeline",
    "extras": {
      "build": "quantum-ball-v1",
      "generatedBy": "tools/build-quantum-ball.mjs"
    }
  },
  "extensionsUsed": [
    "KHR_interactivity"
  ],
  "scene": 0,
  "scenes": [
    {
      "name": "QuantumBallScene",
      "nodes": [
        0
      ]
    }
  ],
  "nodes": [
    {
      "name": "QuantumBallRoot",
      "children": [
        1,
        2,
        3
      ]
    },
    {
      "name": "QuantumBallCore",
      "mesh": 0,
      "scale": [
        0.055,
        0.055,
        0.055
      ]
    },
    {
      "name": "QuantumBallHalo",
      "mesh": 1,
      "scale": [
        0.095,
        0.095,
        0.095
      ]
    },
    {
      "name": "QuantumBallShell",
      "mesh": 2,
      "scale": [
        0.071,
        0.071,
        0.071
      ]
    }
  ],
  "meshes": [
    {
      "name": "QuantumBallCoreMesh",
      "primitives": [
        {
          "attributes": {
            "POSITION": 0,
            "NORMAL": 1
          },
          "indices": 2,
          "material": 0
        }
      ]
    },
    {
      "name": "QuantumBallHaloMesh",
      "primitives": [
        {
          "attributes": {
            "POSITION": 0,
            "NORMAL": 1
          },
          "indices": 2,
          "material": 1
        }
      ]
    },
    {
      "name": "QuantumBallShellMesh",
      "primitives": [
        {
          "attributes": {
            "POSITION": 0,
            "NORMAL": 1
          },
          "indices": 2,
          "material": 2
        }
      ]
    }
  ],
  "materials": [
    {
      "name": "QuantumBallCoreMaterial",
      "pbrMetallicRoughness": {
        "baseColorFactor": [
          1,
          0.776,
          0.294,
          1
        ],
        "metallicFactor": 0.08,
        "roughnessFactor": 0.22
      },
      "emissiveFactor": [
        1,
        0.45,
        0.08
      ]
    },
    {
      "name": "QuantumBallHaloMaterial",
      "pbrMetallicRoughness": {
        "baseColorFactor": [
          1,
          0.776,
          0.294,
          0.22
        ],
        "metallicFactor": 0,
        "roughnessFactor": 0.52
      },
      "emissiveFactor": [
        1,
        0.45,
        0.08
      ],
      "alphaMode": "BLEND",
      "doubleSided": true
    },
    {
      "name": "QuantumBallShellMaterial",
      "pbrMetallicRoughness": {
        "baseColorFactor": [
          0.22,
          0.84,
          0.91,
          0.18
        ],
        "metallicFactor": 0.16,
        "roughnessFactor": 0.18
      },
      "emissiveFactor": [
        0.22,
        0.84,
        0.91
      ],
      "alphaMode": "BLEND",
      "doubleSided": true
    }
  ],
  "buffers": [
    {
      "byteLength": 19608,
      "uri": "data:application/octet-stream;base64,"
    }
  ],
  "bufferViews": [
    {
      "buffer": 0,
      "byteOffset": 0,
      "byteLength": 6732,
      "target": 34962
    },
    {
      "buffer": 0,
      "byteOffset": 6732,
      "byteLength": 6732,
      "target": 34962
    },
    {
      "buffer": 0,
      "byteOffset": 13464,
      "byteLength": 6144,
      "target": 34963
    }
  ],
  "accessors": [
    {
      "bufferView": 0,
      "componentType": 5126,
      "count": 561,
      "type": "VEC3",
      "min": [
        -1,
        -1,
        -1
      ],
      "max": [
        1,
        1,
        1
      ]
    },
    {
      "bufferView": 1,
      "componentType": 5126,
      "count": 561,
      "type": "VEC3"
    },
    {
      "bufferView": 2,
      "componentType": 5123,
      "count": 3072,
      "type": "SCALAR"
    }
  ],
  "extensions": {
    "KHR_interactivity": {
      "graphs": [
        {
          "types": [
            {
              "signature": "int"
            },
            {
              "signature": "float"
            }
          ],
          "variables": [
            {
              "type": 0,
              "value": [
                0
              ],
              "extras": {
                "id": "presentationState",
                "labels": [
                  "Idle",
                  "Selected",
                  "Charging",
                  "Released",
                  "Colliding",
                  "Quantum-active",
                  "Collapsing",
                  "Pocketed"
                ]
              }
            },
            {
              "type": 1,
              "value": [
                0
              ],
              "extras": {
                "id": "charge"
              }
            },
            {
              "type": 1,
              "value": [
                0
              ],
              "extras": {
                "id": "impact"
              }
            }
          ],
          "events": [
            {
              "id": "QB_SELECTED"
            },
            {
              "id": "QB_DESELECTED"
            },
            {
              "id": "QB_CHARGE",
              "values": {
                "charge": {
                  "type": 1,
                  "value": [
                    0
                  ]
                }
              }
            },
            {
              "id": "QB_RELEASED",
              "values": {
                "charge": {
                  "type": 1,
                  "value": [
                    0
                  ]
                }
              }
            },
            {
              "id": "QB_COLLISION",
              "values": {
                "impact": {
                  "type": 1,
                  "value": [
                    0
                  ]
                }
              }
            },
            {
              "id": "QB_QUANTUM",
              "values": {
                "impact": {
                  "type": 1,
                  "value": [
                    1
                  ]
                }
              }
            },
            {
              "id": "QB_COLLAPSE"
            },
            {
              "id": "QB_POCKETED"
            },
            {
              "id": "QB_RESET"
            },
            {
              "id": "QB_VISUAL_COMPLETE"
            }
          ],
          "declarations": [
            {
              "op": "event/receive"
            },
            {
              "op": "variable/set"
            },
            {
              "op": "flow/setDelay"
            },
            {
              "op": "event/send"
            },
            {
              "op": "debug/log"
            }
          ],
          "nodes": [
            {
              "declaration": 0,
              "configuration": {
                "event": {
                  "value": [
                    0
                  ]
                }
              },
              "flows": {
                "out": {
                  "node": 1
                }
              }
            },
            {
              "declaration": 1,
              "configuration": {
                "variables": {
                  "value": [
                    0
                  ]
                }
              },
              "values": {
                "0": {
                  "type": 0,
                  "value": [
                    1
                  ]
                }
              }
            },
            {
              "declaration": 0,
              "configuration": {
                "event": {
                  "value": [
                    1
                  ]
                }
              },
              "flows": {
                "out": {
                  "node": 3
                }
              }
            },
            {
              "declaration": 1,
              "configuration": {
                "variables": {
                  "value": [
                    0
                  ]
                }
              },
              "values": {
                "0": {
                  "type": 0,
                  "value": [
                    0
                  ]
                }
              }
            },
            {
              "declaration": 0,
              "configuration": {
                "event": {
                  "value": [
                    2
                  ]
                }
              },
              "flows": {
                "out": {
                  "node": 5
                }
              }
            },
            {
              "declaration": 1,
              "configuration": {
                "variables": {
                  "value": [
                    0,
                    1
                  ]
                }
              },
              "values": {
                "0": {
                  "type": 0,
                  "value": [
                    2
                  ]
                },
                "1": {
                  "node": 4,
                  "socket": "charge"
                }
              }
            },
            {
              "declaration": 0,
              "configuration": {
                "event": {
                  "value": [
                    3
                  ]
                }
              },
              "flows": {
                "out": {
                  "node": 7
                }
              }
            },
            {
              "declaration": 1,
              "configuration": {
                "variables": {
                  "value": [
                    0,
                    1
                  ]
                }
              },
              "values": {
                "0": {
                  "type": 0,
                  "value": [
                    3
                  ]
                },
                "1": {
                  "node": 6,
                  "socket": "charge"
                }
              }
            },
            {
              "declaration": 0,
              "configuration": {
                "event": {
                  "value": [
                    4
                  ]
                }
              },
              "flows": {
                "out": {
                  "node": 9
                }
              }
            },
            {
              "declaration": 1,
              "configuration": {
                "variables": {
                  "value": [
                    0,
                    2
                  ]
                }
              },
              "values": {
                "0": {
                  "type": 0,
                  "value": [
                    4
                  ]
                },
                "2": {
                  "node": 8,
                  "socket": "impact"
                }
              }
            },
            {
              "declaration": 0,
              "configuration": {
                "event": {
                  "value": [
                    5
                  ]
                }
              },
              "flows": {
                "out": {
                  "node": 11
                }
              }
            },
            {
              "declaration": 1,
              "configuration": {
                "variables": {
                  "value": [
                    0,
                    2
                  ]
                }
              },
              "values": {
                "0": {
                  "type": 0,
                  "value": [
                    5
                  ]
                },
                "2": {
                  "node": 10,
                  "socket": "impact"
                }
              }
            },
            {
              "declaration": 0,
              "configuration": {
                "event": {
                  "value": [
                    6
                  ]
                }
              },
              "flows": {
                "out": {
                  "node": 13
                }
              }
            },
            {
              "declaration": 1,
              "configuration": {
                "variables": {
                  "value": [
                    0,
                    1
                  ]
                }
              },
              "values": {
                "0": {
                  "type": 0,
                  "value": [
                    6
                  ]
                },
                "1": {
                  "type": 1,
                  "value": [
                    0
                  ]
                }
              },
              "flows": {
                "out": {
                  "node": 14
                }
              }
            },
            {
              "declaration": 2,
              "values": {
                "duration": {
                  "type": 1,
                  "value": [
                    0.42
                  ]
                }
              },
              "flows": {
                "done": {
                  "node": 15
                }
              }
            },
            {
              "declaration": 3,
              "configuration": {
                "event": {
                  "value": [
                    9
                  ]
                }
              }
            },
            {
              "declaration": 0,
              "configuration": {
                "event": {
                  "value": [
                    7
                  ]
                }
              },
              "flows": {
                "out": {
                  "node": 17
                }
              }
            },
            {
              "declaration": 1,
              "configuration": {
                "variables": {
                  "value": [
                    0
                  ]
                }
              },
              "values": {
                "0": {
                  "type": 0,
                  "value": [
                    7
                  ]
                }
              }
            },
            {
              "declaration": 0,
              "configuration": {
                "event": {
                  "value": [
                    8
                  ]
                }
              },
              "flows": {
                "out": {
                  "node": 19
                }
              }
            },
            {
              "declaration": 1,
              "configuration": {
                "variables": {
                  "value": [
                    0,
                    1,
                    2
                  ]
                }
              },
              "values": {
                "0": {
                  "type": 0,
                  "value": [
                    0
                  ]
                },
                "1": {
                  "type": 1,
                  "value": [
                    0
                  ]
                },
                "2": {
                  "type": 1,
                  "value": [
                    0
                  ]
                }
              }
            }
          ],
          "extras": {
            "owner": "Quantum Billiards",
            "scope": "source ball local presentation only"
          }
        }
      ],
      "graph": 0
    }
  }
}
