{
  "asset": {
    "version": "2.0",
    "generator": "Quantum Billiards deterministic KHR_interactivity pipeline",
    "extras": {
      "build": "quantum-ball-v2-scarred-cue",
      "generatedBy": "tools/build-quantum-ball.mjs",
      "humanizationDecision": "scarred off-white cue ball with one chalked house-rule seam"
    }
  },
  "extensionsUsed": [
    "KHR_interactivity"
  ],
  "scene": 0,
  "scenes": [
    {
      "name": "QuantumBallScene",
      "nodes": [
        0
      ]
    }
  ],
  "nodes": [
    {
      "name": "QuantumBallRoot",
      "children": [
        1,
        2,
        3,
        4,
        5
      ]
    },
    {
      "name": "QuantumBallCore",
      "mesh": 0,
      "scale": [
        0.055,
        0.055,
        0.055
      ]
    },
    {
      "name": "QuantumBallHalo",
      "mesh": 1,
      "scale": [
        0.087,
        0.087,
        0.087
      ]
    },
    {
      "name": "QuantumBallShell",
      "mesh": 2,
      "scale": [
        0.071,
        0.071,
        0.071
      ]
    },
    {
      "name": "QuantumBallScarBand",
      "mesh": 3,
      "scale": [
        0.058,
        0.058,
        0.058
      ]
    },
    {
      "name": "QuantumBallChalkNick",
      "mesh": 4,
      "scale": [
        0.058,
        0.058,
        0.058
      ]
    }
  ],
  "meshes": [
    {
      "name": "QuantumBallCoreMesh",
      "primitives": [
        {
          "attributes": {
            "POSITION": 0,
            "NORMAL": 1
          },
          "indices": 2,
          "material": 0
        }
      ]
    },
    {
      "name": "QuantumBallHaloMesh",
      "primitives": [
        {
          "attributes": {
            "POSITION": 0,
            "NORMAL": 1
          },
          "indices": 2,
          "material": 1
        }
      ]
    },
    {
      "name": "QuantumBallShellMesh",
      "primitives": [
        {
          "attributes": {
            "POSITION": 0,
            "NORMAL": 1
          },
          "indices": 2,
          "material": 2
        }
      ]
    },
    {
      "name": "QuantumBallScarBandMesh",
      "primitives": [
        {
          "attributes": {
            "POSITION": 3,
            "NORMAL": 4
          },
          "indices": 5,
          "material": 3
        }
      ]
    },
    {
      "name": "QuantumBallChalkNickMesh",
      "primitives": [
        {
          "attributes": {
            "POSITION": 6,
            "NORMAL": 7
          },
          "indices": 8,
          "material": 4
        }
      ]
    }
  ],
  "materials": [
    {
      "name": "QuantumBallCoreMaterial",
      "pbrMetallicRoughness": {
        "baseColorFactor": [
          0.86,
          0.82,
          0.68,
          1
        ],
        "metallicFactor": 0.02,
        "roughnessFactor": 0.38
      },
      "emissiveFactor": [
        0.2,
        0.13,
        0.04
      ]
    },
    {
      "name": "QuantumBallHaloMaterial",
      "pbrMetallicRoughness": {
        "baseColorFactor": [
          0.86,
          0.82,
          0.68,
          0.16
        ],
        "metallicFactor": 0,
        "roughnessFactor": 0.62
      },
      "emissiveFactor": [
        0.42,
        0.31,
        0.1
      ],
      "alphaMode": "BLEND",
      "doubleSided": true
    },
    {
      "name": "QuantumBallShellMaterial",
      "pbrMetallicRoughness": {
        "baseColorFactor": [
          0.22,
          0.84,
          0.91,
          0.18
        ],
        "metallicFactor": 0.16,
        "roughnessFactor": 0.18
      },
      "emissiveFactor": [
        0.22,
        0.84,
        0.91
      ],
      "alphaMode": "BLEND",
      "doubleSided": true
    },
    {
      "name": "QuantumBallScarMaterial",
      "pbrMetallicRoughness": {
        "baseColorFactor": [
          0.035,
          0.13,
          0.105,
          0.92
        ],
        "metallicFactor": 0,
        "roughnessFactor": 0.76
      },
      "emissiveFactor": [
        0.02,
        0.16,
        0.11
      ],
      "alphaMode": "BLEND",
      "doubleSided": true
    },
    {
      "name": "QuantumBallChalkNickMaterial",
      "pbrMetallicRoughness": {
        "baseColorFactor": [
          0.78,
          0.93,
          0.82,
          0.82
        ],
        "metallicFactor": 0,
        "roughnessFactor": 0.9
      },
      "emissiveFactor": [
        0.08,
        0.16,
        0.1
      ],
      "alphaMode": "BLEND",
      "doubleSided": true
    }
  ],
  "buffers": [
    {
      "byteLength": 24564,
      "uri": "data:application/octet-stream;base64,"
    }
  ],
  "bufferViews": [
    {
      "buffer": 0,
      "byteOffset": 0,
      "byteLength": 6732,
      "target": 34962
    },
    {
      "buffer": 0,
      "byteOffset": 6732,
      "byteLength": 6732,
      "target": 34962
    },
    {
      "buffer": 0,
      "byteOffset": 13464,
      "byteLength": 6144,
      "target": 34963
    },
    {
      "buffer": 0,
      "byteOffset": 19608,
      "byteLength": 1752,
      "target": 34962
    },
    {
      "buffer": 0,
      "byteOffset": 21360,
      "byteLength": 1752,
      "target": 34962
    },
    {
      "buffer": 0,
      "byteOffset": 23112,
      "byteLength": 864,
      "target": 34963
    },
    {
      "buffer": 0,
      "byteOffset": 23976,
      "byteLength": 240,
      "target": 34962
    },
    {
      "buffer": 0,
      "byteOffset": 24216,
      "byteLength": 240,
      "target": 34962
    },
    {
      "buffer": 0,
      "byteOffset": 24456,
      "byteLength": 108,
      "target": 34963
    }
  ],
  "accessors": [
    {
      "bufferView": 0,
      "componentType": 5126,
      "count": 561,
      "type": "VEC3",
      "min": [
        -1,
        -1,
        -1
      ],
      "max": [
        1,
        1,
        1
      ]
    },
    {
      "bufferView": 1,
      "componentType": 5126,
      "count": 561,
      "type": "VEC3"
    },
    {
      "bufferView": 2,
      "componentType": 5123,
      "count": 3072,
      "type": "SCALAR"
    },
    {
      "bufferView": 3,
      "componentType": 5126,
      "count": 146,
      "type": "VEC3",
      "min": [
        -0.975255706295352,
        -0.676589646221493,
        -0.882624458216118
      ],
      "max": [
        0.9768843643343347,
        0.6856993168032088,
        0.8810346083390981
      ]
    },
    {
      "bufferView": 4,
      "componentType": 5126,
      "count": 146,
      "type": "VEC3"
    },
    {
      "bufferView": 5,
      "componentType": 5123,
      "count": 432,
      "type": "SCALAR"
    },
    {
      "bufferView": 6,
      "componentType": 5126,
      "count": 20,
      "type": "VEC3",
      "min": [
        -0.605159116084019,
        0.13451822010608977,
        0.768778361226451
      ],
      "max": [
        -0.24218501755325458,
        0.48799853489620215,
        0.9596949582216963
      ]
    },
    {
      "bufferView": 7,
      "componentType": 5126,
      "count": 20,
      "type": "VEC3"
    },
    {
      "bufferView": 8,
      "componentType": 5123,
      "count": 54,
      "type": "SCALAR"
    }
  ],
  "extensions": {
    "KHR_interactivity": {
      "graphs": [
        {
          "types": [
            {
              "signature": "int"
            },
            {
              "signature": "float"
            }
          ],
          "variables": [
            {
              "type": 0,
              "value": [
                0
              ],
              "extras": {
                "id": "presentationState",
                "labels": [
                  "Idle",
                  "Selected",
                  "Charging",
                  "Released",
                  "Colliding",
                  "Quantum-active",
                  "Collapsing",
                  "Pocketed"
                ]
              }
            },
            {
              "type": 1,
              "value": [
                0
              ],
              "extras": {
                "id": "charge"
              }
            },
            {
              "type": 1,
              "value": [
                0
              ],
              "extras": {
                "id": "impact"
              }
            }
          ],
          "events": [
            {
              "id": "QB_SELECTED"
            },
            {
              "id": "QB_DESELECTED"
            },
            {
              "id": "QB_CHARGE",
              "values": {
                "charge": {
                  "type": 1,
                  "value": [
                    0
                  ]
                }
              }
            },
            {
              "id": "QB_RELEASED",
              "values": {
                "charge": {
                  "type": 1,
                  "value": [
                    0
                  ]
                }
              }
            },
            {
              "id": "QB_COLLISION",
              "values": {
                "impact": {
                  "type": 1,
                  "value": [
                    0
                  ]
                }
              }
            },
            {
              "id": "QB_QUANTUM",
              "values": {
                "impact": {
                  "type": 1,
                  "value": [
                    1
                  ]
                }
              }
            },
            {
              "id": "QB_COLLAPSE"
            },
            {
              "id": "QB_POCKETED"
            },
            {
              "id": "QB_RESET"
            },
            {
              "id": "QB_VISUAL_COMPLETE"
            }
          ],
          "declarations": [
            {
              "op": "event/receive"
            },
            {
              "op": "variable/set"
            },
            {
              "op": "flow/setDelay"
            },
            {
              "op": "event/send"
            },
            {
              "op": "debug/log"
            }
          ],
          "nodes": [
            {
              "declaration": 0,
              "configuration": {
                "event": {
                  "value": [
                    0
                  ]
                }
              },
              "flows": {
                "out": {
                  "node": 1
                }
              }
            },
            {
              "declaration": 1,
              "configuration": {
                "variables": {
                  "value": [
                    0
                  ]
                }
              },
              "values": {
                "0": {
                  "type": 0,
                  "value": [
                    1
                  ]
                }
              }
            },
            {
              "declaration": 0,
              "configuration": {
                "event": {
                  "value": [
                    1
                  ]
                }
              },
              "flows": {
                "out": {
                  "node": 3
                }
              }
            },
            {
              "declaration": 1,
              "configuration": {
                "variables": {
                  "value": [
                    0
                  ]
                }
              },
              "values": {
                "0": {
                  "type": 0,
                  "value": [
                    0
                  ]
                }
              }
            },
            {
              "declaration": 0,
              "configuration": {
                "event": {
                  "value": [
                    2
                  ]
                }
              },
              "flows": {
                "out": {
                  "node": 5
                }
              }
            },
            {
              "declaration": 1,
              "configuration": {
                "variables": {
                  "value": [
                    0,
                    1
                  ]
                }
              },
              "values": {
                "0": {
                  "type": 0,
                  "value": [
                    2
                  ]
                },
                "1": {
                  "node": 4,
                  "socket": "charge"
                }
              }
            },
            {
              "declaration": 0,
              "configuration": {
                "event": {
                  "value": [
                    3
                  ]
                }
              },
              "flows": {
                "out": {
                  "node": 7
                }
              }
            },
            {
              "declaration": 1,
              "configuration": {
                "variables": {
                  "value": [
                    0,
                    1
                  ]
                }
              },
              "values": {
                "0": {
                  "type": 0,
                  "value": [
                    3
                  ]
                },
                "1": {
                  "node": 6,
                  "socket": "charge"
                }
              }
            },
            {
              "declaration": 0,
              "configuration": {
                "event": {
                  "value": [
                    4
                  ]
                }
              },
              "flows": {
                "out": {
                  "node": 9
                }
              }
            },
            {
              "declaration": 1,
              "configuration": {
                "variables": {
                  "value": [
                    0,
                    2
                  ]
                }
              },
              "values": {
                "0": {
                  "type": 0,
                  "value": [
                    4
                  ]
                },
                "2": {
                  "node": 8,
                  "socket": "impact"
                }
              }
            },
            {
              "declaration": 0,
              "configuration": {
                "event": {
                  "value": [
                    5
                  ]
                }
              },
              "flows": {
                "out": {
                  "node": 11
                }
              }
            },
            {
              "declaration": 1,
              "configuration": {
                "variables": {
                  "value": [
                    0,
                    2
                  ]
                }
              },
              "values": {
                "0": {
                  "type": 0,
                  "value": [
                    5
                  ]
                },
                "2": {
                  "node": 10,
                  "socket": "impact"
                }
              }
            },
            {
              "declaration": 0,
              "configuration": {
                "event": {
                  "value": [
                    6
                  ]
                }
              },
              "flows": {
                "out": {
                  "node": 13
                }
              }
            },
            {
              "declaration": 1,
              "configuration": {
                "variables": {
                  "value": [
                    0,
                    1
                  ]
                }
              },
              "values": {
                "0": {
                  "type": 0,
                  "value": [
                    6
                  ]
                },
                "1": {
                  "type": 1,
                  "value": [
                    0
                  ]
                }
              },
              "flows": {
                "out": {
                  "node": 14
                }
              }
            },
            {
              "declaration": 2,
              "values": {
                "duration": {
                  "type": 1,
                  "value": [
                    0.42
                  ]
                }
              },
              "flows": {
                "done": {
                  "node": 15
                }
              }
            },
            {
              "declaration": 3,
              "configuration": {
                "event": {
                  "value": [
                    9
                  ]
                }
              }
            },
            {
              "declaration": 0,
              "configuration": {
                "event": {
                  "value": [
                    7
                  ]
                }
              },
              "flows": {
                "out": {
                  "node": 17
                }
              }
            },
            {
              "declaration": 1,
              "configuration": {
                "variables": {
                  "value": [
                    0
                  ]
                }
              },
              "values": {
                "0": {
                  "type": 0,
                  "value": [
                    7
                  ]
                }
              }
            },
            {
              "declaration": 0,
              "configuration": {
                "event": {
                  "value": [
                    8
                  ]
                }
              },
              "flows": {
                "out": {
                  "node": 19
                }
              }
            },
            {
              "declaration": 1,
              "configuration": {
                "variables": {
                  "value": [
                    0,
                    1,
                    2
                  ]
                }
              },
              "values": {
                "0": {
                  "type": 0,
                  "value": [
                    0
                  ]
                },
                "1": {
                  "type": 1,
                  "value": [
                    0
                  ]
                },
                "2": {
                  "type": 1,
                  "value": [
                    0
                  ]
                }
              }
            }
          ],
          "extras": {
            "owner": "Quantum Billiards",
            "scope": "source ball local presentation only"
          }
        }
      ],
      "graph": 0
    }
  }
}
